<svg width="63" height="53" viewBox="0 0 63 53" fill="none" xmlns="http://www.w3.org/2000/svg">
<g clip-path="url(#clip0_6_62)">
<path d="M31.5 52.1719C14.1305 52.1719 0 40.6558 0 26.5C0 12.3442 14.1305 0.828125 31.5 0.828125C48.8695 0.828125 63 12.3442 63 26.5C63 40.6558 48.8695 52.1719 31.5 52.1719ZM31.5 2.53924C15.2889 2.53924 2.09958 13.2883 2.09958 26.5C2.09958 39.7117 15.2889 50.4608 31.5 50.4608C47.7111 50.4608 60.9004 39.7117 60.9004 26.5C60.9004 13.2883 47.7111 2.53924 31.5 2.53924ZM35.0082 4.79691V7.34547C38.8535 7.80723 42.4996 9.03536 45.6229 10.9209L47.8317 9.12387C44.18 6.84031 39.7916 5.30518 35.0082 4.79691ZM27.9753 4.80416C23.1944 5.31553 18.8098 6.85377 15.1619 9.13629L17.3568 10.9333H17.3669C20.4242 9.0866 24.0416 7.82164 27.9753 7.34443V4.80416ZM29.5312 9.99754V18.5759C28.256 18.786 27.0646 19.1908 26.0167 19.758L18.571 13.693L15.7856 15.9631L23.2376 22.0364C22.5428 22.8883 22.0373 23.8572 21.7807 24.8955H11.2511V28.1045H21.7807C22.0373 29.1417 22.5441 30.1034 23.2376 30.9553L15.7856 37.0306L18.571 39.3007L26.0167 33.2327C27.0829 33.8101 28.2765 34.2133 29.5312 34.42V43.0014H33.4688V34.42C34.7453 34.2098 35.9291 33.7927 36.9769 33.2244L44.429 39.2997L47.2144 37.0296L39.7624 30.9543C40.4559 30.1023 40.9652 29.1407 41.2231 28.1035H51.7489V24.8945H41.2231C40.9665 23.8572 40.4572 22.8883 39.7624 22.0354L47.2144 15.9621L44.429 13.692L36.9769 19.7653C35.9291 19.197 34.7453 18.785 33.4688 18.5748V9.99754H29.5312ZM52.8057 13.1775L50.6007 14.9746C52.9202 17.5225 54.4328 20.4975 55.0043 23.6357H58.1315C57.5027 19.7342 55.6127 16.1526 52.8057 13.1775ZM10.1854 13.191C7.38345 16.164 5.49726 19.7394 4.8698 23.6368H8.00075C8.58502 20.4319 10.1295 17.4828 12.3942 14.9911L10.1854 13.191ZM4.8698 29.3643C5.49472 33.2606 7.37837 36.836 10.1791 39.809L12.3841 38.0089C10.1219 35.5172 8.58375 32.5671 8.00075 29.3632H4.8698V29.3643ZM55.0031 29.3643C54.4175 32.5722 52.8692 35.5235 50.5994 38.0182L52.8044 39.8152C55.6089 36.8402 57.5015 33.2637 58.1302 29.3643H55.0031ZM17.358 42.0667L15.153 43.8637C18.8022 46.1504 23.1931 47.6917 27.9766 48.2041V45.6535C24.0403 45.1742 20.4153 43.9155 17.358 42.0667ZM45.6229 42.0719C42.5631 43.9186 38.9444 45.1856 35.0082 45.6607V48.2041C39.7929 47.6948 44.18 46.1555 47.8317 43.872L45.6331 42.0719H45.6229Z" fill="black"/>
</g>
<defs>
<clipPath id="clip0_6_62">
<rect width="63" height="53" fill="white"/>
</clipPath>
</defs>
</svg>
